<?xml version="1.0" encoding="UTF-8"?>
<svg width="116px" height="358px" viewBox="0 0 116 358" version="1.1" xmlns="http://www.w3.org/2000/svg" xmlns:xlink="http://www.w3.org/1999/xlink">
    <!-- Generator: sketchtool 51.3 (57544) - http://www.bohemiancoding.com/sketch -->
    <title>88362ABB-313D-4CFE-9AC7-B9EB9FCFABC6</title>
    <desc>Created with sketchtool.</desc>
    <defs>
        <linearGradient x1="50%" y1="0%" x2="50%" y2="100%" id="linearGradient-1">
            <stop stop-color="#DDDDF9" offset="0%"></stop>
            <stop stop-color="#B9B8F1" offset="100%"></stop>
        </linearGradient>
    </defs>
    <g id="Page-1" stroke="none" stroke-width="1" fill="none" fill-rule="evenodd">
        <g id="Engagement" transform="translate(-403.000000, -3745.000000)">
            <g id="girl2" transform="translate(403.000000, 3745.000000)">
                <path d="M115.936208,348.854417 C114.402133,355.097665 85.5935309,358.975968 54.5040666,357.785801 C26.2535792,356.703364 5.17857143,351.715949 5.17857143,346.449459 C5.17857143,341.057797 27.2058318,336.690089 56.8441976,336.819366 C89.6109697,336.963007 117.513747,342.432645 115.936208,348.854417" id="Fill-50" fill="#B9B8F1" opacity="0.200000003"></path>
                <path d="M89.0751635,341.711568 L77.6561305,318.858441 L67.1236776,260.673897 L66.5250634,257.371765 L66.0240816,254.610291 L67.9027635,254.444783 L67.9786997,235.895864 L69.9017599,167.464879 L69.9204974,167.240189 L72.7321101,168.171045 L73.6255935,165.963271 L62.5467942,140.803065 L62.9225306,135.213914 L63.1740077,127.964669 L63.3939269,127.485198 L68.5753415,126.527258 L68.9826358,126.623554 L80.4440747,129.369981 L83.4578553,129.40208 L90.6165702,124.674573 L90.6491143,117.10635 L87.8315845,109.116833 L87.8315845,109.097775 L87.8365155,105.76555 L84.4775703,97.5673929 L81.3987015,95.6254338 L77.1482453,96.5853795 L74.3464945,94.1669584 L66.7725958,75.1405745 L62.0773703,70.6828958 L62.0744117,70.6708588 L61.9807242,70.223486 L61.4156403,70.0318981 L61.3830962,70.0238735 L61.2972982,69.9416211 L61.30716,70.0038119 L61.2903949,69.9997996 L59.6247289,69.477196 L61.8337827,65.684558 L62.6602055,53.072858 L58.2519597,44.1053405 L58.5468289,28.8565485 L55.5448826,20.9763676 L56.1997093,17.485656 L54.863429,7.47293125 L41.4670956,0 L22.7355028,3.48268689 L17.5126685,13.0550604 L17.8292338,19.9692772 L14.9377401,24.658667 L13.3322314,35.304334 C13.3322314,35.304334 14.9929665,43.2467058 15.9042012,45.1254709 C16.816422,47.0082483 11.5995048,55.502313 11.5995048,55.502313 L11.1872796,66.4679619 L12.2484144,68.5804442 L7.33228348,70.6899173 L7.33228348,70.7029573 L7.31650452,70.7029573 L0.66074377,77.1858506 L0,127.357807 L5.14985667,132.75537 L7.22183079,135.501797 L11.4920107,136.90711 L16.4268791,136.012364 L15.4032193,146.077249 L5.13605008,167.656466 L6.41315931,169.993638 L7.28297424,169.714783 L5.46740815,174.216597 L13.2987011,235.639076 L7.10250243,251.692337 L10.5590799,251.890946 L10.5442871,251.957149 L8.68237037,257.290515 L8.31649584,284.608342 L13.7454428,314.697673 L13.7385395,315.045741 L13.7375533,314.946437 L11.7592667,320.649938 L11.7069989,325.495808 L11.8204102,325.673353 L11.6310627,328.445861 L11.3805718,343.562247 L12.9495917,343.565256 L13.7691112,336.502583 L18.086628,347.048946 L27.8281607,350.585799 L33.7857027,349.730173 L36.7521464,348.920689 L36.8616129,344.812082 L31.4602791,337.33915 L31.443514,337.343163 L25.9149624,320.167458 L25.5983971,279.171659 L27.6989705,259.423059 L27.8695805,257.94051 L28.4050788,252.918098 L28.9839693,252.952203 L46.3871712,254.144863 L51.0547835,254.415694 L49.562686,263.703193 L49.0686075,266.790667 L49.9167264,274.047937 L51.7155273,278.496588 L64.2371148,309.4596 L64.6897736,318.24556 L59.9422803,324.731463 L60.4817234,329.464988 L63.5250895,332.2716 L66.3889699,345.378821 L67.6907338,345.380827 L66.5881792,335.409228 L72.7330963,338.844771 L77.4421284,346.655739 L87.1422414,348.150325 L97.3571429,348.15835 L97.0139506,344.381761 L89.0751635,341.711568 Z" id="Fill-54" fill="url(#linearGradient-1)"></path>
            </g>
        </g>
    </g>
</svg>